HIERARCHY
ROOT Hips
{
    OFFSET 0.000000 0.000000 0.000000
    CHANNELS 6 Xposition Yposition Zposition Zrotation Xrotation Yrotation
    JOINT Spine
    {
        OFFSET -0.000000 7.236184 0.000000
        CHANNELS 3 Zrotation Xrotation Yrotation
        JOINT Spine1
        {
            OFFSET -0.000000 20.420147 0.000000
            CHANNELS 3 Zrotation Xrotation Yrotation
            JOINT Neck
            {
                OFFSET -0.000000 20.336288 1.848754
                CHANNELS 3 Zrotation Xrotation Yrotation
                JOINT Head
                {
                    OFFSET -0.000000 12.354461 -1.764923
                    CHANNELS 3 Zrotation Xrotation Yrotation
                    End Site
                    {
                        OFFSET -0.000000 22.061537 0.000000
                    }
                }
            }
            JOINT LeftShoulder
            {
                OFFSET 3.573296 18.396038 -0.314103
                CHANNELS 3 Zrotation Xrotation Yrotation
                JOINT LeftArm
                {
                    OFFSET 10.880760 0.000000 0.000000
                    CHANNELS 3 Zrotation Xrotation Yrotation
                    JOINT LeftForeArm
                    {
                        OFFSET 27.185530 0.000000 0.000000
                        CHANNELS 3 Zrotation Xrotation Yrotation
                        JOINT LeftHand
                        {
                            OFFSET 27.825975 0.000000 0.000000
                            CHANNELS 3 Zrotation Xrotation Yrotation
                            End Site
                            {
                                OFFSET 13.236923 0.000000 0.000000
                            }
                        }
                    }
                }
            }
            JOINT RightShoulder
            {
                OFFSET -3.474926 18.396038 -0.314103
                CHANNELS 3 Zrotation Xrotation Yrotation
                JOINT RightArm
                {
                    OFFSET -10.880760 0.000000 0.000000
                    CHANNELS 3 Zrotation Xrotation Yrotation
                    JOINT RightForeArm
                    {
                        OFFSET -27.185530 0.000000 0.000000
                        CHANNELS 3 Zrotation Xrotation Yrotation
                        JOINT RightHand
                        {
                            OFFSET -27.825975 0.000000 0.000000
                            CHANNELS 3 Zrotation Xrotation Yrotation
                            End Site
                            {
                                OFFSET -13.236923 0.000000 0.000000
                            }
                        }
                    }
                }
            }
        }
    }
    JOINT LeftUpLeg
    {
        OFFSET 8.824615 0.000000 0.000000
        CHANNELS 3 Zrotation Xrotation Yrotation
        JOINT LeftLeg
        {
            OFFSET -0.000000 -35.111282 0.000000
            CHANNELS 3 Zrotation Xrotation Yrotation
            JOINT LeftFoot
            {
                OFFSET -0.000000 -42.324711 0.000000
                CHANNELS 3 Zrotation Xrotation Yrotation
                JOINT LeftToeBase
                {
                    OFFSET -0.000000 -5.735999 13.236923
                    CHANNELS 3 Zrotation Xrotation Yrotation
                    End Site
                    {
                        OFFSET -0.000000 0.000000 3.529846
                    }
                }
            }
        }
    }
    JOINT RightUpLeg
    {
        OFFSET -8.824615 0.000000 0.000000
        CHANNELS 3 Zrotation Xrotation Yrotation
        JOINT RightLeg
        {
            OFFSET -0.000000 -35.111282 0.000000
            CHANNELS 3 Zrotation Xrotation Yrotation
            JOINT RightFoot
            {
                OFFSET -0.000000 -42.324711 0.000000
                CHANNELS 3 Zrotation Xrotation Yrotation
                JOINT RightToeBase
                {
                    OFFSET -0.000000 -5.735999 13.236923
                    CHANNELS 3 Zrotation Xrotation Yrotation
                    End Site
                    {
                        OFFSET -0.000000 0.000000 3.529846
                    }
                }
            }
        }
    }
}
MOTION
Frames:    10
Frame Time:    0.008333
-5.879361    80.631409    99.820580    -0.602109    -8.096695    -175.403580    -2.834888    -11.096153    0.769642    0.069207    3.445308    1.043073    3.106181    5.940964    -5.665181    5.959707    -8.210427    -4.927246    1.208885    17.122250    0.556644    -62.670662    31.005459    -23.171156    -1.805085    -7.776296    -8.592554    17.381977    -7.379817    3.502790    5.546054    16.970703    -8.102584    46.767178    44.976627    31.438196    -3.330696    -10.340515    21.332075    -15.267027    -9.182465    -4.083861    5.139390    -16.617943    -0.056756    -0.826696    23.747587    2.645909    -3.646295    -12.422077    -10.051286    -0.817939    -0.892820    0.908123    -13.529357    -7.840281    -7.399192    5.129064    11.696388    -0.296661    7.818765    -5.171089    -12.140084    -0.304775    -0.498069    0.329864    
-6.000610    80.631241    99.903206    -0.518472    -8.198956    -175.620453    -2.793825    -10.964930    0.750833    0.174670    3.289716    1.014021    3.298500    5.814596    -5.577685    5.882785    -8.282712    -4.870958    1.301276    17.125805    0.496246    -62.882294    30.941078    -22.993698    -1.851939    -7.701596    -8.497675    17.323540    -7.310560    3.491364    5.587193    16.898287    -8.181326    46.709995    44.944710    31.310862    -3.372294    -10.423655    21.415791    -15.186825    -9.271057    -3.988539    5.200295    -17.013540    0.168281    -0.870784    24.238613    2.745072    -3.516413    -12.576641    -10.027849    -0.792350    -0.889037    0.879708    -13.807281    -8.917095    -7.287244    5.408661    13.214020    -0.449601    8.095832    -5.088510    -12.005370    -0.290745    -0.866481    0.314841
-6.127681    80.631813    99.997604    -0.430513    -8.304240    -175.892181    -2.749642    -10.812608    0.727907    0.294622    3.123218    0.980145    3.507097    5.676960    -5.461380    5.795867    -8.365314    -4.788795    1.406627    17.126179    0.432579    -63.109154    30.886734    -22.803993    -1.894419    -7.623496    -8.422450    17.256153    -7.238389    3.477872    5.627423    16.823761    -8.256895    46.658344    44.869595    31.193949    -3.407417    -10.497538    21.476374    -15.097692    -9.353840    -3.882135    5.291097    -17.392069    0.444519    -0.934707    24.695059    2.883073    -3.403275    -12.716074    -10.029996    -0.765585    -0.884346    0.849984    -14.123601    -10.135509    -7.137228    5.752616    14.920222    -0.661918    8.410286    -4.945563    -11.833008    -0.269298    -1.296275    0.291792
-6.260082    80.633133    100.103226    -0.340536    -8.409870    -176.222656    -2.703340    -10.639280    0.700767    0.430411    2.951000    0.941437    3.727561    5.528907    -5.313530    5.698082    -8.459658    -4.677708    1.519596    17.122879    0.367414    -63.344246    30.843576    -22.603867    -1.932891    -7.542278    -8.369338    17.178093    -7.163476    3.464103    5.664852    16.747639    -8.327213    46.614201    44.746624    31.091465    -3.437188    -10.561958    21.510380    -15.006608    -9.429540    -3.770263    5.410608    -17.744246    0.769147    -1.017985    25.109148    3.061203    -3.311223    -12.838680    -10.057580    -0.739287    -0.880811    0.820782    -14.480918    -11.493521    -6.955865    6.170300    16.809898    -0.938179    8.764026    -4.730350    -11.620230    -0.240762    -1.781624    0.261051
-6.397091    80.635223    100.218964    -0.251651    -8.513083    -176.612747    -2.657435    -10.447119    0.669238    0.584473    2.780782    0.898073    3.952543    5.371299    -5.133157    5.590195    -8.567049    -4.535851    1.632930    17.114872    0.302320    -63.577408    30.815001    -22.397064    -1.967568    -7.460096    -8.339793    17.087433    -7.087939    3.451329    5.695882    16.670607    -8.390930    46.579098    44.573761    31.008364    -3.463146    -10.617539    21.515697    -14.924231    -9.497211    -3.660329    5.554383    -18.063131    1.133739    -1.119125    25.477165    3.279411    -3.240304    -12.944376    -10.106423    -0.715357    -0.879583    0.794212    -14.880179    -12.982643    -6.760662    6.665748    18.868984    -1.275109    9.156966    -4.433910    -11.366070    -0.205921    -2.309067    0.223443
-6.539433    80.638031    100.344826    -0.165507    -8.611665    -177.066147    -2.613650    -10.235581    0.632788    0.760763    2.617828    0.849479    4.177395    5.204835    -4.917861    5.471429    -8.691234    -4.360340    1.740267    17.102068    0.237888    -63.798733    30.804546    -22.186888    -1.999642    -7.378661    -8.333879    16.981125    -7.013576    3.440119    5.718002    16.592279    -8.446694    46.555012    44.348106    30.945766    -3.487575    -10.666865    21.492025    -14.861426    -9.557981    -3.558523    5.718862    -18.347292    1.530408    -1.238055    25.803642    3.539983    -3.186008    -13.035965    -10.169412    -0.695265    -0.881297    0.771908    -15.325369    -14.608909    -6.574546    7.243785    21.104658    -1.666517    9.592522    -4.046074    -11.068773    -0.164597    -2.865877    0.178746
-6.686451    80.641335    100.479530    -0.084352    -8.702205    -177.581268    -2.573834    -10.005458    0.590994    0.960726    2.467304    0.795629    4.396081    5.034153    -4.667783    5.341891    -8.835781    -4.150538    1.835575    17.085558    0.174639    -63.995365    30.817909    -21.979671    -2.029628    -7.301283    -8.350941    16.855761    -6.943764    3.431082    5.728917    16.514463    -8.492087    46.545269    44.068920    30.903471    -3.512213    -10.713176    21.440903    -14.831517    -9.613509    -3.471791    5.898286    -18.594578    1.944118    -1.374547    26.093138    3.844770    -3.142787    -13.116160    -10.237182    -0.681196    -0.886733    0.756296    -15.815546    -16.361849    -6.426789    7.899100    23.501942    -2.097827    10.069157    -3.562251    -10.732032    -0.115527    -3.429773    0.125562
-6.836732    80.644730    100.620964    -0.010282    -8.780690    -178.152069    -2.539404    -9.757707    0.544079    1.183327    2.332974    0.736769    4.601866    4.865349    -4.385787    5.203604    -9.002913    -3.908004    1.914626    17.066811    0.113395    -64.154099    30.861763    -21.783686    -2.058135    -7.231535    -8.388724    16.708622    -6.882043    3.425060    5.727175    16.439497    -8.524438    46.554527    43.738609    30.877790    -3.538535    -10.760427    21.366844    -14.847969    -9.666222    -3.406661    6.085791    -18.804037    2.355783    -1.528447    26.352180    4.195905    -3.103779    -13.188291    -10.299729    -0.674843    -0.897305    0.749257    -16.346212    -18.219509    -6.346408    8.617892    26.031776    -2.549435    10.581021    -2.985878    -10.365436    -0.056880    -3.971663    0.061872
-6.989120    80.647598    100.767067    0.055540    -8.843072    -178.772095    -2.510882    -9.492733    0.492528    1.426639    2.217425    0.673455    4.790431    4.705039    -4.075374    5.057044    -9.195033    -3.635449    1.974279    17.046249    0.053924    -64.262314    30.943047    -21.605856    -2.085815    -7.172629    -8.443973    16.536005    -6.831616    3.423270    5.712664    16.370129    -8.541429    46.587448    43.359383    30.862545    -3.567535    -10.813143    21.276337    -14.922774    -9.719337    -3.368157    6.275435    -18.976313    2.747110    -1.700424    26.589289    4.597734    -3.062486    -13.256335    -10.348591    -0.676750    -0.914008    0.751397    -16.913290    -20.161531    -6.358920    9.383290    28.670362    -3.001184    11.121434    -2.325917    -9.980886    0.014439    -4.464042    -0.015712
-7.143344    80.649200    100.916840    0.113210    -8.886070    -179.438263    -2.487472    -9.209360    0.436989    1.688698    2.121778    0.606198    4.959561    4.558566    -3.738858    4.902287    -9.415203    -3.334709    2.013952    17.023315    -0.004144    -64.309608    31.068041    -21.451982    -2.113710    -7.126244    -8.512920    16.333191    -6.794164    3.426621    5.685646    16.307892    -8.541220    46.649925    42.932693    30.849052    -3.600265    -10.876766    21.176884    -15.066383    -9.777142    -3.359958    6.463585    -19.113955    3.104174    -1.892340    26.814259    5.057442    -3.013099    -13.324659    -10.377566    -0.686924    -0.938491    0.762727    -17.515747    -22.180998    -6.487624    10.178795    31.414053    -3.436944    11.685578    -1.592045    -9.586810    0.102164    -4.885000    -0.111269
